<svg xmlns="http://www.w3.org/2000/svg" xmlns:xlink="http://www.w3.org/1999/xlink" viewBox="0,0,256,256" width="100px" height="100px" fill-rule="nonzero"><g fill="#687286" fill-rule="nonzero" stroke="none" stroke-width="1" stroke-linecap="butt" stroke-linejoin="miter" stroke-miterlimit="10" stroke-dasharray="" stroke-dashoffset="0" font-family="none" font-weight="none" font-size="none" text-anchor="none" style="mix-blend-mode: normal"><g transform="scale(5.12,5.12)"><path d="M24.90625,-0.03125c-0.04297,0.00781 -0.08594,0.01953 -0.125,0.03125c-0.46484,0.10547 -0.79297,0.52344 -0.78125,1v3.0625c-4.13281,0.46875 -7.45312,3.77734 -7.9375,7.90625h-0.0625c-0.07422,-0.00781 -0.14453,-0.00781 -0.21875,0c-0.53125,0.10156 -0.89453,0.59375 -0.83594,1.13281c0.05859,0.53516 0.51563,0.94141 1.05469,0.92969v8.46875l2,-0.8125v-7.65625h2v6.875l2,-0.71875v-6.15625h2v5.375l1,-0.40625l1,0.40625v-5.375h2v6.15625l2,0.71875v-6.875h2v7.65625l2,0.8125v-8.46875c0.40234,0.05469 0.80078,-0.12891 1.01953,-0.46875c0.21875,-0.34375 0.21875,-0.78125 0,-1.125c-0.21875,-0.33984 -0.61719,-0.52344 -1.01953,-0.46875h-0.0625c-0.48437,-4.12891 -3.80469,-7.4375 -7.9375,-7.90625v-3.0625c0.01172,-0.28906 -0.10547,-0.56641 -0.3125,-0.76172c-0.21094,-0.19922 -0.49609,-0.29687 -0.78125,-0.26953zM24.8125,6c0.10547,0.01563 0.20703,0.01563 0.3125,0c0.03125,0 0.0625,0 0.09375,0c3.38672,0.10547 6.05469,2.69141 6.5625,5.96875h-13.5625c0.51172,-3.28906 3.19141,-5.87891 6.59375,-5.96875zM24.875,21c-0.07422,0.01172 -0.14844,0.03516 -0.21875,0.0625l-19,7.3125c-0.39453,0.14453 -0.65625,0.51953 -0.65625,0.9375v3.6875c0,0.55078 0.44922,1 1,1h1v15c0,0.55078 0.44922,1 1,1h11.3125c0.55078,0 1,-0.44922 1,-1v-5.40625c0,-2.25391 1.46484,-4.3125 3.65625,-4.71875c0.01172,0 0.01953,0 0.03125,0c3.01953,-0.58594 5.59375,1.64063 5.59375,4.53125v5.59375c0,0.55078 0.44922,1 1,1h11.40625c0.55078,0 1,-0.44922 1,-1v-15h1c0.55078,0 1,-0.44922 1,-1v-3.6875c0,-0.41797 -0.26172,-0.79297 -0.65625,-0.9375l-19,-7.3125c-0.14844,-0.05859 -0.30859,-0.07812 -0.46875,-0.0625zM25,23.0625l18,6.90625v2.03125h-34.8125c-0.13281,-0.02734 -0.27344,-0.02734 -0.40625,0h-0.78125v-2.03125zM9,34h32v14h-9.40625v-4.59375c0,-4.09766 -3.80078,-7.28906 -7.96875,-6.5c-0.01172,0.00391 -0.01953,-0.00391 -0.03125,0c-3.19141,0.60547 -5.28125,3.55469 -5.28125,6.6875v4.40625h-9.3125z"></path></g></g></svg>