<svg xmlns="http://www.w3.org/2000/svg" xmlns:xlink="http://www.w3.org/1999/xlink" viewBox="0,0,256,256" width="100px" height="100px" fill-rule="nonzero"><g fill="#687286" fill-rule="nonzero" stroke="none" stroke-width="1" stroke-linecap="butt" stroke-linejoin="miter" stroke-miterlimit="10" stroke-dasharray="" stroke-dashoffset="0" font-family="none" font-weight="none" font-size="none" text-anchor="none" style="mix-blend-mode: normal"><g transform="scale(4.92308,4.92308)"><path d="M41.41406,2.6582c-0.18353,-0.01125 -0.36865,-0.00427 -0.55469,0.02148l-9.46875,1.2832c-0.34985,0.0473 -0.67957,0.1618 -0.98047,0.32812c-0.51282,-0.71045 -1.34192,-1.17773 -2.2832,-1.17773h-9.55664c-0.69696,0 -1.32751,0.26282 -1.82031,0.68359c-0.49292,-0.42078 -1.12293,-0.68359 -1.82031,-0.68359h-9.55664c-1.55469,0 -2.82031,1.26514 -2.82031,2.82031v40.13281c0,1.55518 1.26563,2.82031 2.82031,2.82031h9.55664c0.69739,0 1.32739,-0.26282 1.82031,-0.68359c0.4928,0.42078 1.12335,0.68359 1.82031,0.68359h9.55664c1.55566,0 2.82227,-1.26514 2.82227,-2.82031v-24.35547l3.41211,25.19336c0.21128,1.56039 1.65779,2.62593 3.17383,2.41602l9.4707,-1.2832c1.54349,-0.20836 2.62576,-1.628 2.41602,-3.17383l-5.38672,-39.76758c-0.10059,-0.74414 -0.4873,-1.40527 -1.08789,-1.86328c-0.45117,-0.34351 -0.9826,-0.54046 -1.5332,-0.57422zM41.12891,4.66016c0.45448,-0.0598 0.86638,0.26829 0.92383,0.70313c3.33041,24.58324 2.05416,15.17042 5.38672,39.76953c0.03027,0.21777 -0.02734,0.43311 -0.16016,0.60742c-0.13379,0.17432 -0.32617,0.28662 -0.54297,0.31641l-9.46875,1.2832c-0.45215,0.06104 -0.86328,-0.25391 -0.92383,-0.70312l-5.38672,-39.76953c-0.06056,-0.44308 0.25758,-0.86307 0.70313,-0.92383zM5.37305,5.11328h9.55664c0.44531,0 0.82031,0.37549 0.82031,0.82031v40.13281c0,0.45264 -0.36719,0.82031 -0.82031,0.82031h-9.55664c-0.45215,0 -0.82031,-0.36768 -0.82031,-0.82031v-40.13281c0,-0.44482 0.37598,-0.82031 0.82031,-0.82031zM18.57031,5.11328h9.55664c0.44531,0 0.82227,0.37549 0.82227,0.82031v40.13281c0,0.45264 -0.36914,0.82031 -0.82227,0.82031h-9.55664c-0.45215,0 -0.82031,-0.36768 -0.82031,-0.82031v-40.13281c0,-0.44482 0.37598,-0.82031 0.82031,-0.82031zM39.14063,7.39453l-4.83594,0.6543c-0.54785,0.07373 -0.93164,0.57764 -0.85742,1.125c0.0754,0.5531 0.58778,0.93333 1.125,0.85742l4.83594,-0.65625c0.54785,-0.07373 0.93164,-0.57764 0.85742,-1.125c-0.07422,-0.5459 -0.57812,-0.93213 -1.125,-0.85547zM7.71094,7.55469c-0.55273,0 -1,0.44775 -1,1c0,0.55225 0.44727,1 1,1h4.88086c0.55273,0 1,-0.44775 1,-1c0,-0.55225 -0.44727,-1 -1,-1zM20.91016,7.55469c-0.55273,0 -1,0.44775 -1,1c0,0.55225 0.44727,1 1,1h4.87891c0.55275,0 1,-0.44775 1,-1c0,-0.55225 -0.44725,-1 -1,-1zM39.69727,11.50195l-4.83594,0.6543c-0.54785,0.07373 -0.93164,0.57764 -0.85742,1.125c0.07531,0.55302 0.58708,0.93343 1.125,0.85742l4.83594,-0.65625c0.54785,-0.07373 0.93164,-0.57764 0.85742,-1.125c-0.07422,-0.54687 -0.58008,-0.93359 -1.125,-0.85547zM7.71094,11.69922c-0.55273,0 -1,0.44775 -1,1c0,0.55225 0.44727,1 1,1h4.88086c0.55273,0 1,-0.44775 1,-1c0,-0.55225 -0.44727,-1 -1,-1zM20.91016,11.69922c-0.55273,0 -1,0.44775 -1,1c0,0.55225 0.44727,1 1,1h4.87891c0.55275,0 1,-0.44775 1,-1c0,-0.55225 -0.44725,-1 -1,-1zM40.25391,15.60742l-4.83594,0.65625c-0.54785,0.07373 -0.93164,0.57764 -0.85742,1.125c0.07531,0.55302 0.58708,0.93148 1.125,0.85547l4.83594,-0.6543c0.54785,-0.07373 0.93164,-0.57764 0.85742,-1.125c-0.07422,-0.54687 -0.5752,-0.93652 -1.125,-0.85742zM7.71094,15.84375c-0.55273,0 -1,0.44775 -1,1c0,0.55225 0.44727,1 1,1h4.88086c0.55273,0 1,-0.44775 1,-1c0,-0.55225 -0.44727,-1 -1,-1zM20.91016,15.84375c-0.55273,0 -1,0.44775 -1,1c0,0.55225 0.44727,1 1,1h4.87891c0.55275,0 1,-0.44775 1,-1c0,-0.55225 -0.44725,-1 -1,-1zM40.81055,19.71484l-4.83789,0.65625c-0.54785,0.07373 -0.93164,0.57764 -0.85742,1.125c0.06836,0.50195 0.49707,0.86523 0.99023,0.86523c0.04395,0 0.08984,-0.00342 0.13477,-0.00977l4.83789,-0.6543c0.54785,-0.07373 0.93164,-0.57764 0.85742,-1.125c-0.0752,-0.54687 -0.57715,-0.9375 -1.125,-0.85742zM7.71094,19.98828c-0.55273,0 -1,0.44775 -1,1c0,0.55225 0.44727,1 1,1h4.88086c0.55273,0 1,-0.44775 1,-1c0,-0.55225 -0.44727,-1 -1,-1zM20.91016,19.98828c-0.55273,0 -1,0.44775 -1,1c0,0.55225 0.44727,1 1,1h4.87891c0.55275,0 1,-0.44775 1,-1c0,-0.55225 -0.44725,-1 -1,-1zM39.90234,25.83203c-0.23721,-0.01597 -0.47993,-0.00988 -0.72461,0.02344c-1.9541,0.26465 -3.3291,2.07178 -3.06445,4.02734c0.26518,1.95534 2.07191,3.33145 4.02734,3.06641c1.9541,-0.26465 3.3291,-2.07178 3.06445,-4.02734c-0.23147,-1.7113 -1.64224,-2.97807 -3.30273,-3.08984zM10.15039,25.85547c-1.97266,0 -3.57813,1.60498 -3.57813,3.57813c0,1.97314 1.60547,3.57813 3.57813,3.57813c1.97363,0 3.58008,-1.60498 3.58008,-3.57812c0,-1.97314 -1.60645,-3.57812 -3.58008,-3.57812zM23.34961,25.85547c-1.97266,0 -3.57812,1.60498 -3.57812,3.57813c0,1.97314 1.60547,3.57813 3.57813,3.57813c1.97363,0 3.57813,-1.60498 3.57813,-3.57812c0,-1.97314 -1.60449,-3.57812 -3.57812,-3.57812zM39.76563,27.82813c0.73119,0.04941 1.35625,0.60816 1.45703,1.36133v0.00195c0.11719,0.86233 -0.48926,1.65869 -1.35156,1.77539c-0.86719,0.12109 -1.65918,-0.48926 -1.77539,-1.35156c-0.11719,-0.86328 0.49023,-1.66064 1.35156,-1.77734c0.10753,-0.01473 0.2139,-0.01683 0.31836,-0.00977zM10.15039,27.85547c0.87109,0 1.58008,0.70752 1.58008,1.57813c0,0.87061 -0.70899,1.57813 -1.58008,1.57813c-0.87012,0 -1.57813,-0.70752 -1.57813,-1.57812c0,-0.87061 0.70801,-1.57812 1.57813,-1.57812zM23.34961,27.85547c0.87109,0 1.57813,0.70752 1.57813,1.57813c0,0.87061 -0.70703,1.57813 -1.57812,1.57813c-0.87012,0 -1.57812,-0.70752 -1.57812,-1.57812c0,-0.87061 0.70801,-1.57812 1.57813,-1.57812zM41.48438,37.51563c-0.23683,-0.01572 -0.47864,-0.00836 -0.72266,0.02539c-1.9541,0.26465 -3.33105,2.07031 -3.06641,4.02539c0.26466,1.95666 2.06853,3.33032 4.02734,3.06641c1.9541,-0.26465 3.33105,-2.07031 3.06641,-4.02539v-0.00195c-0.23242,-1.71069 -1.64691,-2.9798 -3.30469,-3.08984zM10.15039,37.64648c-1.97266,0 -3.57813,1.60498 -3.57813,3.57813c0,1.97315 1.60547,3.57813 3.57813,3.57813c1.97363,0 3.58008,-1.60498 3.58008,-3.57812c0,-1.97314 -1.60645,-3.57812 -3.58008,-3.57812zM23.34961,37.64648c-1.97266,0 -3.57812,1.60498 -3.57812,3.57813c0,1.97315 1.60547,3.57813 3.57813,3.57813c1.97363,0 3.57813,-1.60498 3.57813,-3.57812c0,-1.97314 -1.60449,-3.57812 -3.57812,-3.57812zM41.34961,39.51172c0.73497,0.05021 1.35605,0.61283 1.45703,1.36328c0.11719,0.86328 -0.49023,1.65869 -1.35156,1.77539c-0.87877,0.11628 -1.66408,-0.50411 -1.77734,-1.35156c-0.11719,-0.8623 0.48926,-1.65869 1.35156,-1.77539c0.10853,-0.01467 0.21532,-0.01889 0.32031,-0.01172zM10.15039,39.64648c0.87109,0 1.58008,0.70752 1.58008,1.57813c0,0.87061 -0.70899,1.57813 -1.58008,1.57813c-0.87012,0 -1.57813,-0.70752 -1.57813,-1.57812c0,-0.8706 0.70801,-1.57812 1.57813,-1.57812zM23.34961,39.64648c0.87109,0 1.57813,0.70752 1.57813,1.57813c0,0.87061 -0.70703,1.57813 -1.57812,1.57813c-0.87012,0 -1.57812,-0.70752 -1.57812,-1.57812c0,-0.8706 0.70801,-1.57812 1.57813,-1.57812z"></path></g></g></svg>