<svg xmlns="http://www.w3.org/2000/svg" xmlns:xlink="http://www.w3.org/1999/xlink" version="1.1" width="109" height="87" viewBox="0 0 109 87">
<defs>
<clipPath id="clip_1">
<path transform="matrix(1,0,0,-1,0,87)" d="M0 87H109V0H0Z"/>
</clipPath>
</defs>
<g id="layer_1" data-name="Layer 1">
<path transform="matrix(1,0,0,-1,51.1328,7.227501)" d="M0 0V-27.703L-5.762-21.872V-6.87L-7.819-4.823V-11.016L-12.713-6.367V-1.632L-14.77 .425V-7.25L-7.819-13.854V-19.79L-19.664-7.805V2.859L-21.721 4.965V-8.65L0-30.629V-47.247L2.057-49.304V-32.71-30.207-2.06Z" fill="#ff0c3b"/>
<path transform="matrix(1,0,0,-1,47.6875,39.958)" d="M0 0-18.275 18.275V7.205L-11.337 .267-9.78 1.618-16.218 8.057V13.309L-2.057-.852V-17.052L7.219-26.565V-23.619L0-16.215Z" fill="#ff0c3b"/>
<path transform="matrix(1,0,0,-1,40.1577,48.8247)" d="M0 0V8.235L-2.057 6.192V-.852L3.143-6.052V-3.144Z" fill="#ff0c3b"/>
<path transform="matrix(1,0,0,-1,58.6802,7.227501)" d="M0 0V-27.703L5.763-21.872V-6.87L7.82-4.823V-11.016L12.713-6.367V-1.632L14.771 .425V-7.25L7.82-13.854V-19.79L19.664-7.805V2.859L21.721 4.965V-8.65L0-30.629V-47.247L-2.057-49.304V-32.71-30.207-2.06Z" fill="#ff0c3b"/>
<path transform="matrix(1,0,0,-1,62.126,39.958)" d="M0 0 18.275 18.275V7.205L11.337 .267 9.78 1.618 16.218 8.057V13.309L2.057-.852V-17.052L-7.219-26.565V-23.619L0-16.215Z" fill="#ff0c3b"/>
<path transform="matrix(1,0,0,-1,69.6558,48.8247)" d="M0 0V8.235L2.057 6.192V-.852L-3.144-6.052V-3.144Z" fill="#ff0c3b"/>
<path transform="matrix(1,0,0,-1,20.9517,77.5972)" d="M0 0V-7.287H1.926V1.894H-1.381Z"/>
<path transform="matrix(1,0,0,-1,41.0063,75.7036)" d="M0 0 .898-1.242 .299-2.35H2.706L4.128-4.937H-1.181L-3.566-9.18H-1.467L.147-6.448H4.936L6.52-9.18H8.631L3.474 0Z"/>
<path transform="matrix(1,0,0,-1,49.4087,77.2153)" d="M0 0H4.573V-7.668H6.515V0H11.266V1.512H-1.103Z"/>
<g clip-path="url(#clip_1)">
<path transform="matrix(1,0,0,-1,78.3774,83.2266)" d="M0 0C0-.507 .149-.894 .457-1.183 .79-1.498 1.281-1.657 1.915-1.657H10.607V-.145H1.942V6.011H10.607V7.523H0Z"/>
<path transform="matrix(1,0,0,-1,102.6064,75.7036)" d="M0 0V-3.807H-7.211V0H-10.519L-9.138-1.894V-9.18H-7.211V-5.337H0V-9.18H1.926V0Z"/>
<path transform="matrix(1,0,0,-1,35.9155,75.7036)" d="M0 0-4.004-7.32-8.008 0H-10.097L-4.952-9.18H-3.055L2.103 0Z"/>
<path transform="matrix(1,0,0,-1,3.2456,75.7036)" d="M0 0 1.103-1.512H11.265V-7.65H3.308V-4.189H1.381V-9.18H11.307C11.612-9.18 11.888-9.122 12.126-9.008 12.365-8.894 12.566-8.742 12.725-8.557 12.888-8.367 13.009-8.162 13.097-7.931 13.181-7.706 13.222-7.483 13.222-7.249V-1.512 0H12.119Z"/>
<path transform="matrix(1,0,0,-1,75.5679,77.2153)" d="M0 0V1.512H-8.512-10.409-11.791L-10.688 0H-10.409V-2.295-3.825-6.121-7.668H-8.512-.016V-6.121H-8.512V-3.825H-2.909V-2.295H-8.512V0Z"/>
</g>
</g>
</svg>
