<svg xmlns="http://www.w3.org/2000/svg" xmlns:xlink="http://www.w3.org/1999/xlink" viewBox="0,0,256,256" width="100px" height="100px" fill-rule="nonzero"><g fill="#687286" fill-rule="nonzero" stroke="none" stroke-width="1" stroke-linecap="butt" stroke-linejoin="miter" stroke-miterlimit="10" stroke-dasharray="" stroke-dashoffset="0" font-family="none" font-weight="none" font-size="none" text-anchor="none" style="mix-blend-mode: normal"><g transform="scale(5.12,5.12)"><path d="M24.78125,2c-0.22266,0.02344 -0.43359,0.125 -0.59375,0.28125l-12.625,12.71875h-9.5625c-0.52344,0 -1.05859,0.18359 -1.4375,0.5625c-0.37891,0.37891 -0.5625,0.91406 -0.5625,1.4375v4c0,0.52344 0.18359,1.05859 0.5625,1.4375c0.37891,0.37891 0.91406,0.5625 1.4375,0.5625h0.15625l5.375,17.875c0.00781,0.01953 0.01953,0.04297 0.03125,0.0625c0.42188,1.125 1.5,2.0625 2.84375,2.0625h29c1.32031,0 2.49609,-0.83984 2.84375,-2.09375c0.00391,-0.00781 -0.00391,-0.02344 0,-0.03125l0.03125,-0.03125l5.5625,-17.84375h0.15625c0.52344,0 1.05859,-0.18359 1.4375,-0.5625c0.37891,-0.37891 0.5625,-0.91406 0.5625,-1.4375v-4c0,-0.52344 -0.18359,-1.05859 -0.5625,-1.4375c-0.37891,-0.37891 -0.91406,-0.5625 -1.4375,-0.5625h-9.5625l-12.84375,-12.71875c-0.21484,-0.21094 -0.51172,-0.31641 -0.8125,-0.28125zM24.90625,4.4375l10.65625,10.5625h-21.125zM2,17h35.90625c0.07422,0.00781 0.14453,0.00781 0.21875,0h9.875v4h-0.90625c-0.42578,0.00391 -0.80469,0.28125 -0.9375,0.6875l-5.8125,18.625c0,0.01172 0,0.01953 0,0.03125c-0.07812,0.30469 -0.48047,0.65625 -0.9375,0.65625h-29c-0.44531,0 -0.75781,-0.29297 -0.9375,-0.75h-0.03125l-5.59375,-18.53125c-0.12109,-0.41797 -0.5,-0.71094 -0.9375,-0.71875h-0.90625zM33,22.59375l-0.71875,0.6875l-9.28125,9.28125l-4.28125,-4.28125l-0.71875,-0.6875l-1.40625,1.40625l0.6875,0.71875l5,5l0.71875,0.6875l0.71875,-0.6875l10,-10l0.6875,-0.71875z"></path></g></g></svg>