<?xml version="1.0" encoding="UTF-8"?>
<!DOCTYPE svg PUBLIC "-//W3C//DTD SVG 1.1//EN" "http://www.w3.org/Graphics/SVG/1.1/DTD/svg11.dtd">
<svg xmlns="http://www.w3.org/2000/svg" version="1.1" width="512px" height="512px" style="shape-rendering:geometricPrecision; text-rendering:geometricPrecision; image-rendering:optimizeQuality; fill-rule:evenodd; clip-rule:evenodd" xmlns:xlink="http://www.w3.org/1999/xlink">
<g><path style="opacity:0.99" fill="#48af2c" d="M 220.5,299.5 C 241.915,279.587 262.915,259.087 283.5,238C 283.272,237.601 282.938,237.435 282.5,237.5C 313.327,205.84 344.66,174.673 376.5,144C 382.555,141.632 388.221,142.299 393.5,146C 399.667,152.167 405.833,158.333 412,164.5C 415.113,169.251 415.779,174.251 414,179.5C 413.333,180.833 412.667,182.167 412,183.5C 351.5,244 291,304.5 230.5,365C 224.406,369.218 218.073,369.551 211.5,366C 173.667,328.167 135.833,290.333 98,252.5C 94.6667,247.167 94.6667,241.833 98,236.5C 105.167,229.333 112.333,222.167 119.5,215C 124.833,211.667 130.167,211.667 135.5,215C 163.701,243.368 192.035,271.535 220.5,299.5 Z"/></g>
<g><path style="opacity:0.647" fill="#4dae3a" d="M 282.5,237.5 C 282.938,237.435 283.272,237.601 283.5,238C 262.915,259.087 241.915,279.587 220.5,299.5C 240.833,278.5 261.5,257.833 282.5,237.5 Z"/></g>
</svg>
