<svg xmlns="http://www.w3.org/2000/svg" xmlns:xlink="http://www.w3.org/1999/xlink" viewBox="0,0,256,256" width="100px" height="100px" fill-rule="nonzero"><g fill="#687286" fill-rule="nonzero" stroke="none" stroke-width="1" stroke-linecap="butt" stroke-linejoin="miter" stroke-miterlimit="10" stroke-dasharray="" stroke-dashoffset="0" font-family="none" font-weight="none" font-size="none" text-anchor="none" style="mix-blend-mode: normal"><g transform="scale(3.2,3.2)"><path d="M38.72656,9c-4.83984,0 -9.19141,2.64844 -12.34766,5.22266c-3.15625,2.57813 -5.16797,5.16406 -5.16797,5.16406l-0.90234,1.15625l1.41016,0.41406c0,0 0.54688,0.15234 1.20313,0.82422c0.65234,0.66797 1.35156,1.80859 1.35156,3.96875c0,2.80078 0.42969,5.0625 0.64453,6.01953c-0.55859,0.50781 -0.91797,1.22656 -0.91797,2.03125c0,0.64844 0.19531,1.20313 0.35547,1.74609c0.07813,0.27344 0.15625,0.52734 0.20703,0.71875c0.05078,0.19141 0.0625,0.37891 0.0625,0.23438c0,1.39063 1.17969,2.5 2.5625,2.5h0.05859c0.44141,3.44141 2.19141,6.46484 4.75391,8.51563v3.02734l-3.04297,2.62891c-2.26172,0.98828 -5.82812,2.57813 -8.92578,4.53516c-1.57812,0.99609 -3.03125,2.07813 -4.13281,3.26563c-1.10156,1.1875 -1.89844,2.52734 -1.89844,4.02734v6h52v-6c0,-1.5 -0.79687,-2.83984 -1.89844,-4.02734c-1.10156,-1.1875 -2.55469,-2.26953 -4.13281,-3.26562c-3.09766,-1.95703 -6.66406,-3.54687 -8.92578,-4.53516l-3.04297,-2.62891v-3.02344c2.5625,-2.05469 4.30859,-5.07812 4.75391,-8.51953h0.05859c1.38281,0 2.5625,-1.10937 2.5625,-2.5c0,0.14453 0.01172,-0.04297 0.0625,-0.23437c0.05078,-0.19141 0.12891,-0.44531 0.20703,-0.71875c0.16016,-0.54297 0.35547,-1.09766 0.35547,-1.74609c0,-0.82031 -0.37109,-1.54297 -0.94141,-2.05469c0.18359,-1.05469 0.94141,-5.57031 0.94141,-8.74609c0,-3.59375 -1.34375,-6.16797 -3.15625,-7.76562c-1.62891,-1.42969 -3.54297,-2.00391 -5.23828,-2.125c-0.27344,-0.43359 -0.75781,-1.11328 -1.76172,-1.89844c-1.44141,-1.12109 -3.75391,-2.21094 -7.11719,-2.21094zM38.72656,11c2.9375,0 4.76172,0.91016 5.88281,1.78906c1.125,0.87891 1.49609,1.65234 1.49609,1.65234l0.27344,0.55859h0.62109c1.33203,0 3.125,0.50781 4.51953,1.73828c1.39844,1.23047 2.48047,3.15234 2.48047,6.26172c0,2.78906 -0.66406,6.85938 -0.85937,8c-0.00391,0 -0.00781,0 -0.01562,0c-0.08594,0 -0.07031,0.01953 -0.125,0.02734v-3.02734c0,-3.42187 -1.39844,-5.72266 -2.80469,-7.08594c-1.40625,-1.36328 -2.87891,-1.86328 -2.87891,-1.86328l-0.57031,-0.19141l-0.4375,0.41797c0,0 -0.62891,0.61719 -2.14844,1.3125c-1.51953,0.69531 -3.87109,1.41016 -7.16016,1.41016c-1.80078,0 -4.17187,0.63672 -6.23047,2.07422c-2.05078,1.43359 -3.75781,3.77734 -3.76562,6.95703c-0.05469,-0.00781 -0.04297,-0.03125 -0.12891,-0.03125c-0.02344,0 -0.04687,0.00781 -0.07031,0.00781c-0.20312,-0.96484 -0.53125,-2.84766 -0.53125,-5.25781c0,-2.61719 -0.9375,-4.35547 -1.91797,-5.36328c-0.41797,-0.42969 -0.51172,-0.35547 -0.875,-0.57031c0.69141,-0.8125 1.97656,-2.25391 4.16406,-4.03906c2.97266,-2.42578 6.98828,-4.77734 11.08203,-4.77734zM47,21.15625c0.24219,0.09375 0.875,0.29297 1.80469,1.19141c1.09375,1.0625 2.19531,2.75781 2.19531,5.65234v6.30469l1.50391,-0.88281c0.25781,-0.14844 0.49609,-0.28125 0.66406,-0.36719c0.01953,-0.01172 0.02734,-0.01172 0.04688,-0.02344c0.45703,0.04688 0.78516,0.36719 0.78516,0.76953c0,0.07422 -0.11719,0.66016 -0.26953,1.18359c-0.07812,0.25781 -0.15625,0.51953 -0.22266,0.75781c-0.06641,0.23828 -0.13281,0.40625 -0.13281,0.75781c0,0.26563 -0.21875,0.5 -0.5625,0.5h-1.79297l-0.04687,0.94922c-0.26953,5.15234 -4.07031,9.35156 -9.03125,10.23828l-0.28516,0.04688l-0.21484,0.19922c-0.39062,0.35547 -0.88281,0.56641 -1.44141,0.56641c-0.55859,0 -1.05078,-0.21484 -1.44531,-0.57031l-0.21094,-0.19531l-0.28516,-0.04687c-4.96094,-0.88672 -8.76172,-5.08594 -9.03125,-10.23828l-0.05078,-0.94922h-1.78906c-0.34375,0 -0.5625,-0.23437 -0.5625,-0.5c0,-0.35156 -0.06641,-0.51953 -0.13281,-0.75781c-0.06641,-0.23828 -0.14453,-0.5 -0.22266,-0.75781c-0.15234,-0.52344 -0.26953,-1.10937 -0.26953,-1.18359c0,-0.40234 0.32813,-0.72266 0.78516,-0.76953c0.01953,0.01172 0.02734,0.01172 0.04688,0.02344c0.16797,0.08594 0.40625,0.21875 0.66406,0.36719l1.50391,0.88281v-3.25391c0,-2.49219 1.24219,-4.16797 2.91406,-5.33594c1.67188,-1.16797 3.79688,-1.71484 5.08594,-1.71484c3.58203,0 6.23047,-0.78516 7.99219,-1.58984c1.30859,-0.59766 1.65234,-0.96484 2.00781,-1.25391zM34.5,33c-0.82812,0 -1.5,0.67188 -1.5,1.5c0,0.82813 0.67188,1.5 1.5,1.5c0.82813,0 1.5,-0.67187 1.5,-1.5c0,-0.82812 -0.67187,-1.5 -1.5,-1.5zM45.5,33c-0.82812,0 -1.5,0.67188 -1.5,1.5c0,0.82813 0.67188,1.5 1.5,1.5c0.82813,0 1.5,-0.67187 1.5,-1.5c0,-0.82812 -0.67187,-1.5 -1.5,-1.5zM34,48.82813c1.07031,0.56641 2.22656,0.99219 3.45313,1.23828c0.70313,0.55469 1.57422,0.93359 2.54688,0.93359c0.97266,0 1.83594,-0.37891 2.53906,-0.93359c1.23047,-0.24219 2.39063,-0.67187 3.46094,-1.23828v2.58203c-0.38672,0.52734 -0.92578,1.21484 -1.57422,1.90625c-1.33203,1.41797 -3.08594,2.68359 -4.42578,2.68359c-1.33984,0 -3.09375,-1.26562 -4.42578,-2.68359c-0.64844,-0.69141 -1.1875,-1.37891 -1.57422,-1.90625zM32.50391,52.75c0.41797,0.55859 0.95313,1.23438 1.60938,1.93359c0.75391,0.80469 1.64844,1.63672 2.65625,2.26953l-3.75781,2.50391l-1.95703,-5.45312zM47.49609,52.75l1.83203,1.58203l-1.83984,5.125l-3.99609,-2.66406c0.90234,-0.61328 1.70703,-1.375 2.39453,-2.10937c0.65625,-0.69922 1.19141,-1.375 1.60938,-1.93359zM29.35547,55.1875l2.63281,7.35547l6.02344,-4.01562l0.73047,1.82813l-0.66406,8.64453h-22.07812v-4c0,-0.76172 0.45313,-1.68359 1.36719,-2.66797c0.91406,-0.98437 2.24219,-1.99609 3.72656,-2.93359c2.76172,-1.74219 6.00781,-3.22266 8.26172,-4.21094zM51.07813,55.375c2.22656,0.98828 5.23438,2.38672 7.82813,4.02344c1.48438,0.9375 2.8125,1.94922 3.72656,2.93359c0.91406,0.98438 1.36719,1.90625 1.36719,2.66797v4h-5v-4h-10v4h-7.07812l-0.66406,-8.64453l0.83594,-2.08984l6.41797,4.27734zM51,67h6v2h-6z"></path></g></g></svg>