<svg fill="#687286" xmlns="http://www.w3.org/2000/svg"  viewBox="0 0 128 128" width="100px" height="100px"><path d="M 49 1 C 47.3 1 46 2.3 46 4 L 46 124 C 46 125.7 47.3 127 49 127 C 50.7 127 52 125.7 52 124 L 52 7 L 116 7 L 116 124 C 116 125.7 117.3 127 119 127 C 120.7 127 122 125.7 122 124 L 122 4 C 122 2.3 120.7 1 119 1 L 49 1 z M 67 19 C 65.3 19 64 20.3 64 22 L 64 26 C 64 27.7 65.3 29 67 29 C 68.7 29 70 27.7 70 26 L 70 22 C 70 20.3 68.7 19 67 19 z M 84 19 C 82.3 19 81 20.3 81 22 L 81 26 C 81 27.7 82.3 29 84 29 C 85.7 29 87 27.7 87 26 L 87 22 C 87 20.3 85.7 19 84 19 z M 101 19 C 99.3 19 98 20.3 98 22 L 98 26 C 98 27.7 99.3 29 101 29 C 102.7 29 104 27.7 104 26 L 104 22 C 104 20.3 102.7 19 101 19 z M 36.099609 33.001953 C 35.705859 32.987891 35.300391 33.049219 34.900391 33.199219 L 8.9003906 43.199219 C 7.8003906 43.599219 7 44.8 7 46 L 7 124 C 7 125.7 8.3 127 10 127 C 11.7 127 13 125.7 13 124 L 13 48.099609 L 37.099609 38.800781 C 38.599609 38.200781 39.400781 36.500391 38.800781 34.900391 C 38.350781 33.775391 37.280859 33.044141 36.099609 33.001953 z M 67 39 C 65.3 39 64 40.3 64 42 L 64 46 C 64 47.7 65.3 49 67 49 C 68.7 49 70 47.7 70 46 L 70 42 C 70 40.3 68.7 39 67 39 z M 84 39 C 82.3 39 81 40.3 81 42 L 81 46 C 81 47.7 82.3 49 84 49 C 85.7 49 87 47.7 87 46 L 87 42 C 87 40.3 85.7 39 84 39 z M 101 39 C 99.3 39 98 40.3 98 42 L 98 46 C 98 47.7 99.3 49 101 49 C 102.7 49 104 47.7 104 46 L 104 42 C 104 40.3 102.7 39 101 39 z M 30 59 C 28.3 59 27 60.3 27 62 L 27 66 C 27 67.7 28.3 69 30 69 C 31.7 69 33 67.7 33 66 L 33 62 C 33 60.3 31.7 59 30 59 z M 67 59 C 65.3 59 64 60.3 64 62 L 64 66 C 64 67.7 65.3 69 67 69 C 68.7 69 70 67.7 70 66 L 70 62 C 70 60.3 68.7 59 67 59 z M 84 59 C 82.3 59 81 60.3 81 62 L 81 66 C 81 67.7 82.3 69 84 69 C 85.7 69 87 67.7 87 66 L 87 62 C 87 60.3 85.7 59 84 59 z M 101 59 C 99.3 59 98 60.3 98 62 L 98 66 C 98 67.7 99.3 69 101 69 C 102.7 69 104 67.7 104 66 L 104 62 C 104 60.3 102.7 59 101 59 z M 30 79 C 28.3 79 27 80.3 27 82 L 27 86 C 27 87.7 28.3 89 30 89 C 31.7 89 33 87.7 33 86 L 33 82 C 33 80.3 31.7 79 30 79 z M 67 79 C 65.3 79 64 80.3 64 82 L 64 86 C 64 87.7 65.3 89 67 89 C 68.7 89 70 87.7 70 86 L 70 82 C 70 80.3 68.7 79 67 79 z M 84 79 C 82.3 79 81 80.3 81 82 L 81 86 C 81 87.7 82.3 89 84 89 C 85.7 89 87 87.7 87 86 L 87 82 C 87 80.3 85.7 79 84 79 z M 101 79 C 99.3 79 98 80.3 98 82 L 98 86 C 98 87.7 99.3 89 101 89 C 102.7 89 104 87.7 104 86 L 104 82 C 104 80.3 102.7 79 101 79 z M 27 103 C 25.3 103 24 104.3 24 106 L 24 124 C 24 125.7 25.3 127 27 127 L 33 127 C 34.7 127 36 125.7 36 124 L 36 106 C 36 104.3 34.7 103 33 103 L 27 103 z M 81 103 C 79.3 103 78 104.3 78 106 L 78 124 C 78 125.7 79.3 127 81 127 L 87 127 C 88.7 127 90 125.7 90 124 L 90 106 C 90 104.3 88.7 103 87 103 L 81 103 z"/></svg>