<svg xmlns="http://www.w3.org/2000/svg" xmlns:xlink="http://www.w3.org/1999/xlink" viewBox="0,0,256,256" width="5px" height="5px" fill-rule="nonzero"><g fill="none" fill-rule="nonzero" stroke="none" stroke-width="1" stroke-linecap="butt" stroke-linejoin="miter" stroke-miterlimit="10" stroke-dasharray="" stroke-dashoffset="0" font-family="none" font-weight="none" font-size="none" text-anchor="none" style="mix-blend-mode: normal"><g transform="scale(3.2,3.2)"><path d="M2.5,8.5h75v63h-75z" fill="#fcfcfc"></path><path d="M2.5,21.5h11.5v50h-11.5zM40,21.5h11v50h-11z" fill="#ffffff"></path><path d="M2.5,8.5h75v13h-75z" fill="#ffffff"></path><path d="M77,9v12h-74v-12h74M78,8h-76v14h76v-14zM55,63h18v1h-18zM55,45h14v1h-14zM55,37h18v1h-18zM55,29h18v1h-18zM65,55h8v1h-8zM18,63h18v1h-18zM18,45h18v1h-18zM18,37h12v1h-12zM18,29h18v1h-18zM8,29h1v1h-1zM8,37h1v1h-1zM8,45h1v1h-1zM8,55h1v1h-1zM8,63h1v1h-1zM45,29h1v1h-1zM45,37h1v1h-1zM45,45h1v1h-1zM45,55h1v1h-1zM45,63h1v1h-1zM28,55h8v1h-8z" fill="#7b8495"></path><g fill="#7b8495"><path d="M77,9v62h-74v-62h74M78,8h-76v64h76v-64z"></path></g></g></g></svg>