<svg xmlns="http://www.w3.org/2000/svg" xmlns:xlink="http://www.w3.org/1999/xlink" viewBox="0,0,256,256" width="24px" height="24px" fill-rule="nonzero"><g fill-opacity="0" fill="#dddddd" fill-rule="nonzero" stroke="none" stroke-width="1" stroke-linecap="butt" stroke-linejoin="miter" stroke-miterlimit="10" stroke-dasharray="" stroke-dashoffset="0" font-family="none" font-weight="none" font-size="none" text-anchor="none" style="mix-blend-mode: normal"><path d="M0,256v-256h256v256z" id="bgRectangle"></path></g><g fill="#b4b9c3" fill-rule="nonzero" stroke="none" stroke-width="1" stroke-linecap="butt" stroke-linejoin="miter" stroke-miterlimit="10" stroke-dasharray="" stroke-dashoffset="0" font-family="none" font-weight="none" font-size="none" text-anchor="none" style="mix-blend-mode: normal"><g transform="scale(10.66667,10.66667)"><path d="M3,3c-1.09306,0 -2,0.90694 -2,2v14c0,1.09306 0.90694,2 2,2h18c1.09306,0 2,-0.90694 2,-2v-14c0,-1.09306 -0.90694,-2 -2,-2zM3,5h18v2h-18zM3,9h8v10h-8zM13,9h8v10h-8zM5,11v2h4v-2zM15,11v2h4v-2zM5,15v2h3v-2zM15,15v2h3v-2z"></path></g></g></svg>