<svg xmlns="http://www.w3.org/2000/svg" xmlns:xlink="http://www.w3.org/1999/xlink" viewBox="0,0,256,256" width="16px" height="16px" fill-rule="nonzero"><g fill="none" fill-rule="nonzero" stroke="none" stroke-width="1" stroke-linecap="butt" stroke-linejoin="miter" stroke-miterlimit="10" stroke-dasharray="" stroke-dashoffset="0" font-family="none" font-weight="none" font-size="none" text-anchor="none" style="mix-blend-mode: normal"><g transform="scale(6.4,6.4)"><rect x="1.5" y="4.5" width="37" height="31" fill-opacity="0" fill="#000000"></rect><rect x="1.5" y="10.5" width="5.5" height="25" fill-opacity="0" fill="#e1ebf2"></rect><rect x="20" y="10.5" width="5" height="25" fill-opacity="0" fill="#e1ebf2"></rect><rect x="1.5" y="4.5" width="37" height="6" fill="#f2f4f7"></rect><path d="M38,5v5h-36v-5h36M39,4h-38v7h38v-7z" fill="#000000"></path><rect x="27" y="31" width="9" height="1" fill="#000000"></rect><rect x="27" y="22" width="7" height="1" fill="#000000"></rect><rect x="27" y="18" width="9" height="1" fill="#000000"></rect><rect x="27" y="14" width="9" height="1" fill="#000000"></rect><rect x="32" y="27" width="4" height="1" fill="#000000"></rect><rect x="9" y="31" width="9" height="1" fill="#000000"></rect><rect x="9" y="22" width="9" height="1" fill="#000000"></rect><rect x="9" y="18" width="6" height="1" fill="#000000"></rect><rect x="9" y="14" width="9" height="1" fill="#000000"></rect><rect x="4" y="14" width="1" height="1" fill="#000000"></rect><rect x="4" y="18" width="1" height="1" fill="#000000"></rect><rect x="4" y="22" width="1" height="1" fill="#000000"></rect><rect x="4" y="27" width="1" height="1" fill="#000000"></rect><rect x="4" y="31" width="1" height="1" fill="#000000"></rect><rect x="22" y="14" width="1" height="1" fill="#000000"></rect><rect x="22" y="18" width="1" height="1" fill="#000000"></rect><rect x="22" y="22" width="1" height="1" fill="#000000"></rect><rect x="22" y="27" width="1" height="1" fill="#000000"></rect><rect x="22" y="31" width="1" height="1" fill="#000000"></rect><rect x="14" y="27" width="4" height="1" fill="#000000"></rect><g fill="#000000"><path d="M38,5v30h-36v-30h36M39,4h-38v32h38v-32z"></path></g></g></g></svg>