<svg xmlns="http://www.w3.org/2000/svg"  viewBox="0 0 24 24" width="100px" height="100px">
<path fill='white' d="M 4 3 A 1.0001 1.0001 0 0 0 3 4 L 3 6 A 1.0001 1.0001 0 0 0 3.2402344 6.6503906 L 9 13.369141 L 9 19 A 1.0001 1.0001 0 0 0 9.5527344 19.894531 L 13.552734 21.894531 A 1.0001 1.0001 0 0 0 15 21 L 15 13.369141 L 20.759766 6.6503906 A 1.0001 1.0001 0 0 0 21 6 L 21 4 A 1.0001 1.0001 0 0 0 20 3 L 4 3 z M 5 5 L 19 5 L 19 5.6308594 L 13.240234 12.349609 A 1.0001 1.0001 0 0 0 13 13 L 13 19.382812 L 11 18.382812 L 11 13 A 1.0001 1.0001 0 0 0 10.759766 12.349609 L 5 5.6308594 L 5 5 z"/>
</svg>