<svg xmlns="http://www.w3.org/2000/svg" xmlns:xlink="http://www.w3.org/1999/xlink" viewBox="0,0,256,256" width="100px" height="100px" fill-rule="nonzero"><g fill="#687286" fill-rule="nonzero" stroke="none" stroke-width="1" stroke-linecap="butt" stroke-linejoin="miter" stroke-miterlimit="10" stroke-dasharray="" stroke-dashoffset="0" font-family="none" font-weight="none" font-size="none" text-anchor="none" style="mix-blend-mode: normal"><g transform="scale(5.12,5.12)"><path d="M25,2c-12.682,0 -23,10.318 -23,23c0,12.682 10.318,23 23,23c12.682,0 23,-10.318 23,-23c0,-4.597 -1.36036,-8.88052 -3.69336,-12.47852l-0.89258,0.89258l-0.57031,0.57031c1.988,3.207 3.15625,6.97263 3.15625,11.01563c0,11.58 -9.42,21 -21,21c-11.58,0 -21,-9.42 -21,-21c0,-11.58 9.42,-21 21,-21c4.91332,0 9.42035,1.71744 13,4.55664v2.0293l-2.43555,2.43555c-2.82033,-2.49409 -6.51256,-4.02148 -10.56445,-4.02148c-8.822,0 -16,7.178 -16,16c0,8.822 7.178,16 16,16c8.822,0 16,-7.178 16,-16c0,-3.329 -1.02448,-6.42333 -2.77148,-8.98633l-1.44922,1.44922c1.398,2.179 2.2207,4.76111 2.2207,7.53711c0,7.72 -6.28,14 -14,14c-7.72,0 -14,-6.28 -14,-14c0,-7.72 6.28,-14 14,-14c3.5013,0 6.6951,1.30174 9.15039,3.43555l-3.54687,3.54688c-1.53866,-1.23412 -3.48197,-1.98242 -5.60352,-1.98242c-4.962,0 -9,4.038 -9,9c0,4.962 4.038,9 9,9c4.962,0 9,-4.038 9,-9c0,-1.387 -0.32472,-2.69514 -0.88672,-3.86914l-1.52539,1.52344c0.262,0.734 0.41211,1.5227 0.41211,2.3457c0,3.86 -3.14,7 -7,7c-3.86,0 -7,-3.14 -7,-7c0,-3.86 3.14,-7 7,-7c1.56996,0 3.01514,0.52604 4.18359,1.40234l-3.66797,3.66797c-0.16808,-0.04579 -0.34142,-0.06943 -0.51562,-0.07031c-1.10457,0 -2,0.89543 -2,2c0,1.10457 0.89543,2 2,2c1.10457,0 2,-0.89543 2,-2c-0.00007,-0.17477 -0.02306,-0.34878 -0.06836,-0.51758l12.48242,-12.48242h2.58594l5,-5h-4v-4l-3.87305,3.87305c-3.90208,-3.0487 -8.80261,-4.87305 -14.12695,-4.87305z"></path></g></g></svg>