<svg xmlns="http://www.w3.org/2000/svg" xmlns:xlink="http://www.w3.org/1999/xlink" version="1.1" width="58" height="74" viewBox="0 0 58 74">
<path transform="matrix(1,0,0,-1,25.4907,10.162102)" d="M0 0V-27.702L-5.763-21.872V-6.87L-7.82-4.823V-11.016L-12.713-6.367V-1.631L-14.771 .426V-7.25L-7.82-13.854V-19.79L-19.664-7.805V2.859L-21.721 4.965V-8.649L0-30.629V-47.247L2.057-49.304V-32.71-30.206-2.059Z" fill="#ff0c3b"/>
<path transform="matrix(1,0,0,-1,22.0449,42.892099)" d="M0 0-18.275 18.275V7.205L-11.337 .266-9.78 1.618-16.218 8.057V13.309L-2.057-.853V-17.052L7.219-26.565V-23.619L0-16.215Z" fill="#ff0c3b"/>
<path transform="matrix(1,0,0,-1,14.5151,51.7593)" d="M0 0V8.235L-2.057 6.193V-.852L3.144-6.052V-3.143Z" fill="#ff0c3b"/>
<path transform="matrix(1,0,0,-1,33.0381,10.162102)" d="M0 0V-27.702L5.762-21.872V-6.87L7.819-4.823V-11.016L12.713-6.367V-1.631L14.77 .426V-7.25L7.819-13.854V-19.79L19.664-7.805V2.859L21.721 4.965V-8.649L0-30.629V-47.247L-2.057-49.304V-32.71-30.206-2.059Z" fill="#ff0c3b"/>
<path transform="matrix(1,0,0,-1,36.4834,42.892099)" d="M0 0 18.275 18.275V7.205L11.337 .266 9.78 1.618 16.218 8.057V13.309L2.057-.853V-17.052L-7.219-26.565V-23.619L0-16.215Z" fill="#ff0c3b"/>
<path transform="matrix(1,0,0,-1,44.0137,51.7593)" d="M0 0V8.235L2.057 6.193V-.852L-3.144-6.052V-3.143Z" fill="#ff0c3b"/>
</svg>
