<svg xmlns="http://www.w3.org/2000/svg"  viewBox="0 0 64 64" width="64px" height="64px"><path d="M 31.957031 10.5 A 1.5 1.5 0 0 0 30.5 12 L 30.5 18.544922 C 23.672905 18.964353 17.546793 22.181953 12.787109 25.666016 L 8.3105469 21.189453 A 1.5 1.5 0 0 0 6.1894531 23.310547 L 10.396484 27.517578 C 5.8862725 31.236313 3.0638319 34.762467 2.8203125 35.070312 A 1.5 1.5 0 0 0 2.8203125 36.919922 C 3.3503125 37.599922 16 53.5 32 53.5 C 48 53.5 60.649688 37.599688 61.179688 36.929688 A 1.5 1.5 0 0 0 61.179688 35.070312 C 60.936168 34.762467 58.113727 31.236313 53.603516 27.517578 L 57.810547 23.310547 A 1.5 1.5 0 0 0 57.810547 21.189453 A 1.5 1.5 0 0 0 55.689453 21.189453 L 51.212891 25.666016 C 46.453207 22.181953 40.327095 18.964353 33.5 18.544922 L 33.5 12 A 1.5 1.5 0 0 0 31.957031 10.5 z M 32 21.5 C 38.957778 21.5 45.393384 25.02267 50.208984 28.701172 A 1.5 1.5 0 0 0 50.582031 28.996094 C 54.147094 31.774206 56.784765 34.589989 58 36 C 55.13 39.33 44.43 50.5 32 50.5 C 19.57 50.5 8.87 39.33 6 36 C 8.91 32.67 19.61 21.5 32 21.5 z M 32 23.5 A 12.5 12.5 0 1 0 44.5 36 A 12.51 12.51 0 0 0 32 23.5 z M 31.605469 26.507812 A 9.5 9.5 0 0 1 41.5 36 A 9.51 9.51 0 0 1 32 45.5 A 9.5 9.5 0 0 1 31.605469 26.507812 z M 32 28.080078 A 7.93 7.93 0 0 0 24.080078 36 A 1.5 1.5 0 0 0 27.080078 36 A 4.92 4.92 0 0 1 32 31.080078 A 1.5 1.5 0 0 0 32 28.080078 z"/></svg>