<svg xmlns="http://www.w3.org/2000/svg" xmlns:xlink="http://www.w3.org/1999/xlink" viewBox="0,0,256,256" width="100px" height="100px" fill-rule="nonzero"><g fill="#687286" fill-rule="nonzero" stroke="none" stroke-width="1" stroke-linecap="butt" stroke-linejoin="miter" stroke-miterlimit="10" stroke-dasharray="" stroke-dashoffset="0" font-family="none" font-weight="none" font-size="none" text-anchor="none" style="mix-blend-mode: normal"><g transform="scale(3.76471,3.76471)"><path d="M21.59961,2c-3,0 -5.49961,2.10039 -6.09961,4.90039c-8.4,1 -13.79961,9.19883 -11.59961,17.29883c0.5,1.9 1.39922,3.70117 2.69922,5.20117l-3.59961,6.19922c-1.3,2.3 -0.59922,5.2 1.80078,6.5c2.3,1.4 5.2,0.50117 6.5,-1.79883l3.59961,-6.20117c0.1,0 0.3,0.09961 0.5,0.09961v25.5c0,3.5 2.79883,6.30078 6.29883,6.30078h37.90039c3.5,0 6.30078,-2.80078 6.30078,-6.30078v-51.39844c-0.2,-3.5 -3,-6.30078 -6.5,-6.30078zM21.59961,4h37.90039c2.4,0 4.30078,1.90078 4.30078,4.30078v51.39844h-0.10156c0,2.4 -1.89883,4.30078 -4.29883,4.30078h-37.80078c-2.4,0 -4.29883,-1.90078 -4.29883,-4.30078v-25.39844c1.1,0 2.29844,-0.2 3.39844,-0.5c7.3,-1.9 11.70117,-9.50039 9.70117,-16.90039c-1,-3.5 -3.20039,-6.50078 -6.40039,-8.30078c-2,-1.1 -4.20039,-1.79883 -6.40039,-1.79883c0.6,-1.6 2.2,-2.80078 4,-2.80078zM17.09961,8.80078c6.4,0 11.80078,5.19883 11.80078,11.79883c0,6.3 -5.09961,11.70078 -11.59961,11.80078c-5.2,0.1 -10.20156,-3.40078 -11.60156,-8.80078c-1.9,-7.2 3.30039,-14.79883 11.40039,-14.79883zM43.30078,10.80078c-0.5,0 -1,0.4 -1,1v19.29883c0,0.5 0.4,1 1,1h5.19922c0.6,0 1,-0.5 1,-1v-19.29883c0,-0.6 -0.4,-1 -1,-1zM17.30078,11.80078c-2.9,-0.1 -6.10078,1.39844 -7.80078,4.39844c-3.2,5.5 0.19961,13.10156 8.09961,13.10156c2.9,-0.2 5.59961,-1.80039 7.09961,-4.40039c3.4,-5.8 -0.89844,-12.99961 -7.39844,-13.09961zM53.19922,17.69922c-0.6,0 -1,0.5 -1,1v12.40039c0,0.5 0.4,1 1,1h5.20117c0.6,0 1,-0.5 1,-1v-12.40039c0,-0.5 -0.5,-1 -1,-1zM33.40039,21c-0.6,0 -1,0.4 -1,1v9.09961c0,0.6 0.4,1 1,1h5.19922c0.6,0 1,-0.5 1,-1v-9.09961c0,-0.6 -0.4,-1 -1,-1zM49.30078,39.90039c-5.7,0 -10.40039,4.70039 -10.40039,10.40039c0,5.7 4.70039,10.39844 10.40039,10.39844c5.8,0 10.39844,-4.69844 10.39844,-10.39844c0,-5.7 -4.49844,-10.40039 -10.39844,-10.40039zM31.59961,40.09961c-0.5,0 -1,0.4 -1,1v2.90039c0,0.5 0.4,1 1,1h2.90039c0.5,0 1,-0.4 1,-1v-3c-0.1,-0.5 -0.5,-0.90039 -1,-0.90039zM21.30078,41.80078c-0.5,0 -1,0.4 -1,1c0,0.5 0.4,1 1,1h5.5c0.5,0 1,-0.4 1,-1c0,-0.6 -0.4,-1 -1,-1zM48.59961,41.90039v7.79883c0,0.5 0.40039,0.90039 0.90039,0.90039h8.19922c-0.1,4.5 -3.79844,8.09961 -8.39844,8.09961c-4.6,0 -8.40039,-3.79844 -8.40039,-8.39844c0,-4.4 3.39922,-8.10039 7.69922,-8.40039zM31.59961,47.40039c-0.5,0 -1,0.4 -1,1v2.90039c0,0.5 0.4,1 1,1h2.90039c0.5,0 1,-0.4 1,-1v-2.90039c-0.1,-0.6 -0.5,-1 -1,-1zM21.30078,48.90039c-0.5,0 -1,0.4 -1,1c0,0.5 0.4,1 1,1h5.5c0.5,0 1,-0.4 1,-1c0,-0.6 -0.4,-1 -1,-1zM31.59961,54.80078c-0.5,0 -1,0.4 -1,1v2.89844c0,0.5 0.4,1 1,1h2.90039c0.5,0 1,-0.4 1,-1v-2.89844c-0.1,-0.6 -0.5,-1 -1,-1zM21.30078,55.90039c-0.5,0 -1,0.4 -1,1c0,0.5 0.4,1 1,1h5.5c0.5,0 1,-0.4 1,-1c0,-0.5 -0.4,-1 -1,-1z"></path></g></g></svg>