<svg fill="#687286" xmlns="http://www.w3.org/2000/svg"  viewBox="0 0 50 50" width="100px" height="100px"><path d="M 12 0 C 10.90625 0 10 0.90625 10 2 L 10 22 C 10 23.09375 10.90625 24 12 24 L 42 24 C 43.09375 24 44 23.09375 44 22 L 44 2 C 44 0.90625 43.09375 0 42 0 Z M 12 2 L 42 2 L 42 22 L 12 22 Z M 22.5 4 C 21.132813 4 20 5.132813 20 6.5 C 20 7.867188 21.132813 9 22.5 9 L 31.5 9 C 32.867188 9 34 7.867188 34 6.5 C 34 5.132813 32.867188 4 31.5 4 Z M 22.5 6 L 31.5 6 C 31.785156 6 32 6.214844 32 6.5 C 32 6.785156 31.785156 7 31.5 7 L 22.5 7 C 22.214844 7 22 6.785156 22 6.5 C 22 6.214844 22.214844 6 22.5 6 Z M 13.46875 28 C 10.632813 28 9.324219 28.6875 7.90625 29.25 C 5.199219 30.324219 0.5625 32.5625 0.5625 32.5625 C 0.195313 32.6875 -0.0625 33.015625 -0.105469 33.398438 C -0.148438 33.785156 0.0351563 34.160156 0.367188 34.363281 C 0.695313 34.5625 1.113281 34.554688 1.4375 34.34375 C 1.4375 34.34375 6.109375 32.101563 8.65625 31.09375 C 10.214844 30.476563 10.921875 30 13.46875 30 C 19.085938 30 18.917969 32.527344 21.21875 33.90625 C 22.046875 34.402344 23.347656 34.785156 24.8125 35.15625 C 24.9375 35.226563 25.074219 35.269531 25.21875 35.28125 C 25.230469 35.285156 25.238281 35.277344 25.25 35.28125 C 26.902344 35.683594 28.65625 36 30 36 C 30.585938 36 31.089844 36.066406 31.5 36.15625 C 31.519531 36.15625 31.542969 36.15625 31.5625 36.15625 C 31.9375 36.246094 32.230469 36.371094 32.4375 36.5 C 32.875 36.777344 33 37.003906 33 37.5 C 33 38.082031 32.875 38.269531 32.4375 38.53125 C 32 38.792969 31.152344 39 30 39 L 24.1875 39 C 21.738281 39 18.28125 38.03125 18.28125 38.03125 C 17.746094 37.875 17.1875 38.183594 17.03125 38.71875 C 16.875 39.253906 17.183594 39.8125 17.71875 39.96875 C 17.71875 39.96875 21.246094 41 24.1875 41 L 30 41 C 31.351563 41 32.5 40.804688 33.4375 40.25 C 33.707031 40.089844 33.945313 39.890625 34.15625 39.65625 C 34.246094 39.625 34.328125 39.585938 34.40625 39.53125 L 43.40625 33.46875 C 44.964844 32.542969 46.046875 32.300781 46.6875 32.3125 C 47.328125 32.324219 47.546875 32.515625 47.75 32.78125 C 48.046875 33.167969 48.066406 33.386719 47.875 33.84375 C 47.683594 34.300781 47.152344 34.941406 46.1875 35.625 C 44.988281 36.476563 31.773438 45.257813 30.21875 46.15625 C 29.070313 46.820313 28.152344 47.542969 27.09375 47.84375 C 26.035156 48.144531 24.769531 48.121094 22.71875 47.125 C 21.351563 46.460938 15.5625 43.4375 13.6875 42.46875 C 12.652344 41.933594 11.800781 41.636719 10.90625 41.6875 C 10.011719 41.738281 9.230469 42.148438 8.4375 42.65625 L 5.75 44.40625 C 5.285156 44.707031 5.152344 45.332031 5.453125 45.796875 C 5.753906 46.261719 6.378906 46.394531 6.84375 46.09375 L 9.53125 44.34375 C 10.230469 43.898438 10.625 43.707031 11 43.6875 C 11.375 43.667969 11.886719 43.789063 12.78125 44.25 C 14.640625 45.210938 20.339844 48.207031 21.84375 48.9375 C 24.207031 50.085938 26.101563 50.183594 27.625 49.75 C 29.148438 49.316406 30.238281 48.445313 31.21875 47.875 C 33.300781 46.667969 45.839844 38.316406 47.34375 37.25 C 48.492188 36.4375 49.300781 35.585938 49.71875 34.59375 C 50.136719 33.601563 50.007813 32.429688 49.34375 31.5625 C 48.820313 30.878906 47.902344 30.335938 46.71875 30.3125 C 45.886719 30.296875 44.878906 30.601563 43.78125 31.09375 C 43.738281 30.890625 43.839844 30.664063 43.75 30.46875 C 43.410156 29.730469 42.632813 29.230469 41.78125 29.0625 C 40.667969 28.84375 39.40625 29.179688 38.15625 29.75 C 38.066406 29.476563 37.996094 29.183594 37.8125 28.96875 C 37.277344 28.328125 36.5 28.117188 35.78125 28.0625 C 34.347656 27.953125 32.859375 28.417969 31.78125 29.0625 C 30.285156 29.953125 25.8125 32.773438 25.15625 33.1875 C 23.820313 32.828125 22.605469 32.402344 22.25 32.1875 C 21.335938 31.636719 19.773438 28 13.46875 28 Z M 35.625 30.0625 C 36.023438 30.09375 36.226563 30.214844 36.28125 30.28125 C 36.324219 30.332031 36.40625 30.421875 36.375 30.71875 L 31.4375 34.09375 C 30.984375 34.023438 30.515625 34 30 34 C 29.472656 34 28.753906 33.90625 27.96875 33.78125 C 29.707031 32.6875 31.859375 31.347656 32.8125 30.78125 C 33.484375 30.382813 34.824219 30 35.625 30.0625 Z M 40.75 31 C 41.015625 30.976563 41.234375 30.964844 41.40625 31 C 41.820313 31.082031 41.871094 31.167969 41.9375 31.3125 C 41.984375 31.417969 42.007813 31.6875 41.96875 32.03125 L 34.90625 36.78125 C 34.734375 36.058594 34.316406 35.417969 33.71875 34.96875 L 37.84375 32.125 C 37.964844 32.0625 38.070313 31.980469 38.15625 31.875 C 39.050781 31.332031 40.039063 31.066406 40.75 31 Z"/></svg>