<svg xmlns="http://www.w3.org/2000/svg" xmlns:xlink="http://www.w3.org/1999/xlink" viewBox="0,0,256,256" width="100px" height="100px" fill-rule="nonzero"><g fill="#687286" fill-rule="nonzero" stroke="none" stroke-width="1" stroke-linecap="butt" stroke-linejoin="miter" stroke-miterlimit="10" stroke-dasharray="" stroke-dashoffset="0" font-family="none" font-weight="none" font-size="none" text-anchor="none" style="mix-blend-mode: normal"><g transform="scale(0.5,0.5)"><path d="M500.073,212.587l-239.673,-171.478c-2.43317,-1.74078 -5.70369,-1.74279 -8.139,-0.005l-240.326,171.478c-3.14802,2.24504 -3.88004,6.61698 -1.635,9.765c2.24504,3.14802 6.61698,3.88004 9.765,1.635l38.76,-27.657v268.714c0,3.86599 3.13401,7 7,7h380.35c3.86599,0 7,-3.13401 7,-7v-268.79l38.752,27.725c3.14443,2.24946 7.51704,1.52393 9.7665,-1.6205c2.24946,-3.14443 1.52393,-7.51704 -1.6205,-9.7665zM402.264,207.336h-292.528v-10.478h292.528zM109.736,221.336h292.528v10.478h-292.528zM109.736,245.814h292.528v10.479h-292.528zM109.736,270.293h292.528v187.746h-23.377v-66.839c0,-3.86599 -3.13401,-7 -7,-7h-53v-67c0,-3.86599 -3.13401,-7 -7,-7h-160c-3.86599,0 -7,3.13401 -7,7v67h-13c-3.86599,0 -7,3.13401 -7,7v66.842h-15.151zM183.887,324.193h16v9.92l-4.117,-2.744c-2.35134,-1.56762 -5.41466,-1.56762 -7.766,0l-4.117,2.744zM173.587,353.365c2.27624,1.21798 5.0381,1.08423 7.186,-0.348l11.117,-7.411l11.11,7.415c2.14794,1.43202 4.90972,1.56558 7.18583,0.34753c2.27611,-1.21805 3.69707,-3.58999 3.69717,-6.17153v-23h11v60h-66v-60h11v23c0.00069,2.58253 1.42326,4.95489 3.701,6.172zM238.887,324.193h11v23c0.00011,2.58154 1.42106,4.95348 3.69717,6.17153c2.27611,1.21805 5.03788,1.08448 7.18583,-0.34753l11.117,-7.411l11.113,7.415c2.14794,1.43202 4.90972,1.56558 7.18583,0.34753c2.27611,-1.21805 3.69707,-3.58999 3.69717,-6.17153v-23h11v60h-66zM263.887,324.193h16v9.92l-4.117,-2.744c-2.35134,-1.56762 -5.41466,-1.56762 -7.766,0l-4.117,2.744zM323.887,398.193h16v9.92l-4.117,-2.744c-2.35134,-1.56762 -5.41466,-1.56762 -7.766,0l-4.117,2.744zM243.887,398.193h16v9.92l-4.117,-2.744c-2.35134,-1.56762 -5.41466,-1.56762 -7.766,0l-4.117,2.744zM163.887,398.193h16v9.92l-4.117,-2.744c-2.35134,-1.56762 -5.41466,-1.56762 -7.766,0l-4.117,2.744zM149.887,398.193v23c0.00011,2.58154 1.42106,4.95348 3.69717,6.17153c2.27611,1.21805 5.03788,1.08448 7.18583,-0.34753l11.117,-7.411l11.113,7.415c2.14794,1.43202 4.90972,1.56558 7.18583,0.34753c2.27611,-1.21805 3.69707,-3.58999 3.69717,-6.17153v-23h11v59.842h-66v-59.839zM218.887,398.193h11v23c0.00011,2.58154 1.42106,4.95348 3.69717,6.17153c2.27611,1.21805 5.03788,1.08448 7.18583,-0.34753l11.117,-7.411l11.113,7.415c2.14794,1.43202 4.90972,1.56558 7.18583,0.34753c2.27611,-1.21805 3.69707,-3.58999 3.69717,-6.17153v-23h11v59.842h-66zM298.887,398.193h11v23c0.00011,2.58154 1.42106,4.95348 3.69717,6.17153c2.27611,1.21805 5.03788,1.08448 7.18583,-0.34753l11.117,-7.411l11.113,7.415c2.14794,1.43202 4.90972,1.56558 7.18583,0.34753c2.27611,-1.21805 3.69707,-3.58999 3.69717,-6.17153v-23h11v59.842h-66zM439.175,458.035h-22.911v-268.177c0,-3.86599 -3.13401,-7 -7,-7h-306.528c-3.86599,0 -7,3.13401 -7,7v268.181h-22.911v-271.706l183.49,-130.927l182.86,130.826z"></path></g></g></svg>