<svg xmlns="http://www.w3.org/2000/svg" xmlns:xlink="http://www.w3.org/1999/xlink" viewBox="0,0,256,256" width="128px" height="128px" fill-rule="nonzero"><g fill="#687286" fill-rule="nonzero" stroke="none" stroke-width="1" stroke-linecap="butt" stroke-linejoin="miter" stroke-miterlimit="10" stroke-dasharray="" stroke-dashoffset="0" font-family="none" font-weight="none" font-size="none" text-anchor="none" style="mix-blend-mode: normal"><g transform="scale(2,2)"><path d="M114,106c-1.7,0 -3,1.3 -3,3v15c0,1.7 1.3,3 3,3c1.7,0 3,-1.3 3,-3v-15c0,-1.7 -1.3,-3 -3,-3zM107,22c0,-7.2 -5.8,-13 -13,-13c-7.2,0 -13,5.8 -13,13c0,7.2 5.8,13 13,13c7.2,0 13,-5.8 13,-13zM87,22c0,-3.9 3.1,-7 7,-7c3.9,0 7,3.1 7,7c0,3.9 -3.1,7 -7,7c-3.9,0 -7,-3.1 -7,-7zM47,22c0,-7.2 -5.8,-13 -13,-13c-7.2,0 -13,5.8 -13,13c0,7.2 5.8,13 13,13c7.2,0 13,-5.8 13,-13zM27,22c0,-3.9 3.1,-7 7,-7c3.9,0 7,3.1 7,7c0,3.9 -3.1,7 -7,7c-3.9,0 -7,-3.1 -7,-7zM94,41c-14.6,0 -23,6.6 -23,18v7h-18.1c-1.1,-3.8 -2.5,-7.5 -4.2,-11c-4.5,-9.3 -9.5,-14 -14.7,-14c-5.2,0 -10.1,4.7 -14.7,13.9c-1.7,3.5 -3.1,7.3 -4.2,11.1h-5.1c-5,0 -9,4 -9,9c0,5 4,9 9,9h64c1.7,0 3,-1.3 3,-3c0,-1.7 -1.3,-3 -3,-3h-64c-1.7,0 -3,-1.3 -3,-3c0,-1.7 1.3,-3 3,-3h64c1.7,0 3,-1.3 3,-3v-10c0,-8 5.7,-12 17,-12c11.3,0 17,4 17,12v35c0,1.7 1.3,3 3,3c1.7,0 3,-1.3 3,-3v-35c0,-11.4 -8.4,-18 -23,-18zM21.4,66c0.9,-2.9 2,-5.8 3.4,-8.5c3.2,-6.6 6.6,-10.5 9.2,-10.5c2.6,0 6.1,4 9.3,10.6c1.3,2.7 2.4,5.5 3.3,8.4z"></path></g></g></svg>