<svg xmlns="http://www.w3.org/2000/svg"  viewBox="0 0 128 128" width="100px" height="100px"><path d="M39 117c1.7 0 3-1.3 3-3V21.2l10.9 10.9c.6.6 1.4.9 2.1.9s1.5-.3 2.1-.9c1.2-1.2 1.2-3.1 0-4.2l-16-16c-1.2-1.2-3.1-1.2-4.2 0l-16 16c-1.2 1.2-1.2 3.1 0 4.2 1.2 1.2 3.1 1.2 4.2 0L36 21.2V114C36 115.7 37.3 117 39 117zM89 11c-1.7 0-3 1.3-3 3v92.8L75.1 95.9c-1.2-1.2-3.1-1.2-4.2 0-1.2 1.2-1.2 3.1 0 4.2l16 16c.6.6 1.4.9 2.1.9s1.5-.3 2.1-.9l16-16c1.2-1.2 1.2-3.1 0-4.2-1.2-1.2-3.1-1.2-4.2 0L92 106.8V14C92 12.3 90.7 11 89 11z"/></svg>