<svg xmlns="http://www.w3.org/2000/svg"  viewBox="0 0 64 64" width="64px" height="64px"><ellipse cx="32" cy="61" opacity=".3" rx="19" ry="3"/><path fill="#9c34c2" d="M36,46H10c-2.209,0-4-1.791-4-4V14c0-2.209,1.791-4,4-4h24c2.209,0,4,1.791,4,4v30	C38,45.105,37.105,46,36,46z"/><path fill="#37d0ee" d="M36,46H10c-2.209,0-4-1.791-4-4v-4h32v6C38,45.105,37.105,46,36,46z"/><path fill="#68e5fd" d="M58,33.11V44c0,1.1-0.9,2-2,2H40c-1.1,0-2-0.9-2-2V21c0-1.1,0.9-2,2-2h10.94	c1.24,0,2.35,0.76,2.8,1.92l3.86,10.04c0.13,0.34,0.23,0.69,0.3,1.05C57.96,32.37,58,32.74,58,33.11z"/><path fill="#008aa9" d="M44,32h6.663c1.622,0,2.751-1.612,2.196-3.136l-2.381-5.548C50.191,22.526,49.44,22,48.599,22H44	c-1.105,0-2,0.895-2,2v6C42,31.105,42.895,32,44,32z"/><circle cx="18" cy="46" r="6" fill="#9c34c2"/><circle cx="18" cy="46" r="3" fill="#37d0ee"/><path d="M58,33.11V44c0,1.1-0.9,2-2,2H43c0-2.42,1.72-4.44,4-4.9l5.01-0.09c0.55-0.01,0.99-0.45,0.99-1V37	c0-2.73,2.19-4.95,4.9-4.99C57.96,32.37,58,32.74,58,33.11z" opacity=".15"/><path fill="#fff" d="M27,10c0,2.76-2.24,5-5,5H11v11c0,2.761-2.239,5-5,5h0V14c0-2.209,1.791-4,4-4H27z" opacity=".3"/><path fill="#fff" d="M9.5,20C8.671,20,8,19.329,8,18.5v-3c0-1.93,1.57-3.5,3.5-3.5h3c0.829,0,1.5,0.671,1.5,1.5	S15.329,15,14.5,15h-3c-0.276,0-0.5,0.224-0.5,0.5v3C11,19.329,10.329,20,9.5,20z"/><circle cx="48" cy="46" r="6" fill="#9c34c2"/><circle cx="48" cy="46" r="3" fill="#37d0ee"/></svg>