<svg xmlns="http://www.w3.org/2000/svg"  viewBox="0 0 128 128" width="128px" height="128px"><path d="M 64 9 C 48.6 9 36 21.6 36 37 L 36 59 L 28 59 C 23 59 19 63 19 68 C 19 72.3 22 75.900781 26 76.800781 L 26 84 C 26 105 43 122 64 122 C 68.9 122 73.699219 121.10078 78.199219 119.30078 C 79.699219 118.70078 80.500391 116.90039 79.900391 115.40039 C 79.300391 113.90039 77.5 113.09922 76 113.69922 C 72.2 115.19922 68.2 116 64 116 C 46.4 116 32 101.6 32 84 L 32 77 L 100 77 C 105 77 109 73 109 68 C 109 63 105 59 100 59 L 42 59 L 42 37 C 42 24.9 51.9 15 64 15 C 76.1 15 86 24.9 86 37 C 86 38.7 87.3 40 89 40 C 90.7 40 92 38.7 92 37 C 92 21.6 79.4 9 64 9 z M 28 65 L 100 65 C 101.7 65 103 66.3 103 68 C 103 69.7 101.7 71 100 71 L 28 71 C 26.3 71 25 69.7 25 68 C 25 66.3 26.3 65 28 65 z M 105.94922 83.050781 C 100.82422 83.050781 95.700781 85.000391 91.800781 88.900391 C 84.000781 96.700391 84.000781 109.39922 91.800781 117.19922 C 99.600781 124.99922 112.29961 124.99922 120.09961 117.19922 C 127.99961 109.29922 127.99961 96.700391 120.09961 88.900391 C 116.19961 85.000391 111.07422 83.050781 105.94922 83.050781 z M 64 91 C 62.3 91 61 92.3 61 94 L 61 101 C 61 102.7 62.3 104 64 104 C 65.7 104 67 102.7 67 101 L 67 94 C 67 92.3 65.7 91 64 91 z M 106 94 C 110.95 94 115.89922 96.199609 119.19922 100.59961 C 120.29922 101.99961 120.29922 104.00039 119.19922 105.40039 C 112.59922 114.20039 99.400781 114.20039 92.800781 105.40039 C 91.700781 104.00039 91.700781 101.99961 92.800781 100.59961 C 96.100781 96.199609 101.05 94 106 94 z M 106.01172 98 C 104.72422 98 103.45 98.5 102.5 99.5 C 100.5 101.5 100.5 104.59961 102.5 106.59961 C 104.5 108.59961 107.59961 108.59961 109.59961 106.59961 C 111.59961 104.59961 111.59961 101.5 109.59961 99.5 C 108.59961 98.5 107.29922 98 106.01172 98 z"/></svg>