<svg xmlns="http://www.w3.org/2000/svg"  viewBox="0 0 24 24" width="96px" height="96px"><path d="M 12 3 C 4.1079763 3 0.046875 11.787109 0.046875 11.787109 A 0.50005 0.50005 0 0 0 0.046875 12.212891 C 0.046875 12.212891 4.1079763 21 12 21 C 19.892024 21 23.953125 12.212891 23.953125 12.212891 A 0.50005 0.50005 0 0 0 23.953125 11.787109 C 23.953125 11.787109 19.892024 3 12 3 z M 12 4 C 18.842366 4 22.618465 11.374973 22.927734 12 C 22.618465 12.625027 18.842366 20 12 20 C 5.1576341 20 1.3815351 12.625027 1.0722656 12 C 1.3815351 11.374973 5.1576341 4 12 4 z M 12 7 C 10.375001 7 9.0935892 7.6273777 8.2519531 8.5742188 C 7.4103171 9.5210596 7 10.763889 7 12 C 7 13.236111 7.4103171 14.47894 8.2519531 15.425781 C 9.0935892 16.372622 10.375001 17 12 17 C 13.624999 17 14.906411 16.372622 15.748047 15.425781 C 16.589683 14.47894 17 13.236111 17 12 C 17 10.763889 16.589683 9.5210597 15.748047 8.5742188 C 14.906411 7.6273777 13.624999 7 12 7 z M 12 8 C 13.374999 8 14.34359 8.4976223 15.001953 9.2382812 C 15.660316 9.9789404 16 10.986111 16 12 C 16 13.013889 15.660316 14.02106 15.001953 14.761719 C 14.34359 15.502378 13.374999 16 12 16 C 10.625001 16 9.6564102 15.502378 8.9980469 14.761719 C 8.3396836 14.02106 8 13.013889 8 12 C 8 10.986111 8.3396836 9.9789403 8.9980469 9.2382812 C 9.6564102 8.4976223 10.625001 8 12 8 z"/></svg>